<?xml version="1.0" standalone="no"?>
<!DOCTYPE svg PUBLIC "-//W3C//DTD SVG 20010904//EN"
 "http://www.w3.org/TR/2001/REC-SVG-20010904/DTD/svg10.dtd">
<svg version="1.0" xmlns="http://www.w3.org/2000/svg"
 width="239.000000pt" height="185.000000pt" viewBox="0 0 239.000000 185.000000"
 preserveAspectRatio="xMidYMid meet">
<metadata>
Created by potrace 1.15, written by Peter Selinger 2001-2017
</metadata>
<g transform="translate(0.000000,185.000000) scale(0.100000,-0.100000)"
fill="#000000" stroke="none">
<path d="M1270 1829 c-79 -36 -116 -87 -253 -361 -164 -329 -181 -390 -152
-550 10 -53 51 -173 59 -173 5 0 59 98 121 219 62 120 119 222 126 227 24 15
75 10 92 -8 8 -10 61 -151 117 -313 266 -772 263 -763 307 -800 56 -47 99 -64
170 -66 89 -3 141 15 195 71 44 45 275 482 314 595 32 91 27 239 -10 358 -15
45 -30 82 -34 82 -4 0 -41 -68 -82 -150 -152 -305 -172 -331 -234 -306 -34 13
-12 -44 -312 824 -41 117 -80 225 -88 241 -19 36 -80 89 -125 109 -57 24 -158
25 -211 1z"/>
<path d="M10 1537 c0 -16 101 -319 265 -792 53 -154 124 -359 157 -455 32 -96
69 -201 80 -232 l21 -58 51 46 c99 90 199 248 236 374 32 108 29 174 -13 300
-101 306 -218 635 -234 659 -28 42 -93 96 -144 119 -73 33 -124 42 -276 49
-125 5 -143 4 -143 -10z"/>
</g>
</svg>
